<svg height="2500" viewBox="0 0 192.756 192.756" width="2500" xmlns="http://www.w3.org/2000/svg"><g clip-rule="evenodd" fill-rule="evenodd"><path d="m0 0h192.756v192.756h-192.756z" fill="none"/><path d="m111.557 113.491h10.418l16.964-34.226h-10.418zm-103.053-.222h8.11c4.688-.148 7.664-2.827 9.673-6.622l7.515-14.807 5.655 15.849c1.414 4.092 3.646 5.654 7.069 5.729 4.092.149 5.878-2.157 7.366-5.432l14.286-28.721h-10.343l-9.45 19.123c-.521 1.19-1.935 1.265-2.456-.075l-5.133-14.733c-1.637-5.952-10.343-6.473-13.468.373l-8.705 17.56c-.372.744-.893 1.562-2.158 1.637h-2.902zm45.313.222h10.417l16.965-34.226h-10.417z" fill="#333991"/><path d="m71.898 103.001h14.36c3.2-.149 5.209-1.488 6.846-3.498l7.589-9.523c1.34-1.488 3.498-2.232 5.805-2.307h15.402l4.166-8.482h-22.322c-5.729 0-9.375 2.307-13.096 7.589l-3.199 4.464c-1.191 1.637-2.307 3.2-4.985 3.2h-6.325z" fill="#cc262d"/><path d="m121.156 89.235h-13.766c-3.424.149-5.061 1.19-6.771 3.423-2.084 2.679-4.985 6.25-7.143 8.929-1.562 1.935-3.943 2.901-6.25 2.901h-15.997l-4.539 9.003h22.992c5.655 0 9.375-2.306 13.022-7.589l3.273-4.464c1.189-1.638 2.307-3.2 4.984-3.2h5.73zm63.096-9.747h-8.109c-4.688.149-7.664 2.828-9.674 6.623l-7.516 14.807-5.654-15.849c-1.414-4.092-3.646-5.655-7.068-5.729-4.018-.148-5.879 2.158-7.367 5.432l-14.285 28.721h10.342l9.525-19.122c.52-1.19 1.934-1.265 2.381.075l5.133 14.733c1.637 5.952 10.344 6.473 13.543-.373l8.631-17.56c.371-.744.893-1.562 2.158-1.637h2.902z" fill="#333991"/></g></svg>