<?xml version="1.0" encoding="UTF-8"?>
<svg width="476px" height="476px" viewBox="0 0 476 476" version="1.1" xmlns="http://www.w3.org/2000/svg" xmlns:xlink="http://www.w3.org/1999/xlink">
    <!-- Generator: Sketch 63.1 (92452) - https://sketch.com -->
    <title>Group</title>
    <desc>Created with Sketch.</desc>
    <g id="Page-1" stroke="none" stroke-width="1" fill="none" fill-rule="evenodd">
        <g id="Group">
            <rect id="Rectangle" fill="#F4F4F4" x="0" y="0" width="476" height="476"></rect>
            <path d="M124.44,267 L124.44,257.96 L99,257.96 L99,209.4 L89.4,209.4 L89.4,267 L124.44,267 Z M150.36,268.2 C154.573333,268.2 158.32,267.24 161.6,265.32 C164.88,263.4 167.413333,260.706667 169.2,257.24 C170.986667,253.773333 171.88,249.826667 171.88,245.4 C171.88,240.973333 170.986667,237.04 169.2,233.6 C167.413333,230.16 164.893333,227.466667 161.64,225.52 C158.386667,223.573333 154.626667,222.6 150.36,222.6 C146.146667,222.6 142.413333,223.56 139.16,225.48 C135.906667,227.4 133.373333,230.08 131.56,233.52 C129.746667,236.96 128.84,240.92 128.84,245.4 C128.84,249.826667 129.733333,253.773333 131.52,257.24 C133.306667,260.706667 135.826667,263.4 139.08,265.32 C142.333333,267.24 146.093333,268.2 150.36,268.2 Z M150.36,259.16 C146.68,259.16 143.88,257.933333 141.96,255.48 C140.04,253.026667 139.08,249.666667 139.08,245.4 C139.08,241.133333 140.026667,237.773333 141.92,235.32 C143.813333,232.866667 146.626667,231.64 150.36,231.64 C154.04,231.64 156.853333,232.866667 158.8,235.32 C160.746667,237.773333 161.72,241.133333 161.72,245.4 C161.72,249.56 160.746667,252.893333 158.8,255.4 C156.853333,257.906667 154.04,259.16 150.36,259.16 Z M192.76,268.2 C196.173333,268.2 199.093333,267.626667 201.52,266.48 C203.946667,265.333333 206.093333,263.56 207.96,261.16 L207.96,261.16 L207.96,267 L216.36,267 L216.36,240.52 C216.36,238.226667 216.266667,236.346667 216.08,234.88 C215.893333,233.413333 215.453333,231.986667 214.76,230.6 C212.04,225.266667 206.493333,222.6 198.12,222.6 C193.16,222.6 189.146667,223.666667 186.08,225.8 C183.013333,227.933333 180.92,230.893333 179.8,234.68 L179.8,234.68 L188.68,237.48 C189.32,235.4 190.506667,233.866667 192.24,232.88 C193.973333,231.893333 195.906667,231.4 198.04,231.4 C200.973333,231.4 203.146667,231.986667 204.56,233.16 C205.973333,234.333333 206.76,236.2 206.92,238.76 C202.226667,239.4 198.44,239.973333 195.56,240.48 C192.68,240.986667 190.2,241.56 188.12,242.2 C184.76,243.373333 182.28,245.04 180.68,247.2 C179.08,249.36 178.28,252.013333 178.28,255.16 C178.28,257.56 178.84,259.746667 179.96,261.72 C181.08,263.693333 182.733333,265.266667 184.92,266.44 C187.106667,267.613333 189.72,268.2 192.76,268.2 Z M194.68,260.52 C192.44,260.52 190.72,260.013333 189.52,259 C188.32,257.986667 187.72,256.653333 187.72,255 C187.72,253.666667 188.16,252.56 189.04,251.68 C189.92,250.8 191.24,250.013333 193,249.32 C194.386667,248.893333 196.266667,248.453333 198.64,248 C201.013333,247.546667 203.746667,247.08 206.84,246.6 C206.733333,249.693333 206.386667,251.933333 205.8,253.32 C205.266667,255.133333 204.026667,256.786667 202.08,258.28 C200.133333,259.773333 197.666667,260.52 194.68,260.52 Z M244.12,268.2 C248.973333,268.2 253.053333,266.76 256.36,263.88 L256.36,263.88 L256.36,267 L264.92,267 L264.92,209.4 L255.24,209.4 L255.24,225.96 C252.253333,223.72 248.653333,222.6 244.44,222.6 C240.44,222.6 236.92,223.586667 233.88,225.56 C230.84,227.533333 228.493333,230.24 226.84,233.68 C225.186667,237.12 224.36,241.026667 224.36,245.4 C224.36,249.72 225.173333,253.613333 226.8,257.08 C228.426667,260.546667 230.746667,263.266667 233.76,265.24 C236.773333,267.213333 240.226667,268.2 244.12,268.2 Z M245.56,259.56 C241.986667,259.56 239.266667,258.253333 237.4,255.64 C235.533333,253.026667 234.6,249.613333 234.6,245.4 C234.6,241.24 235.56,237.84 237.48,235.2 C239.4,232.56 242.2,231.24 245.88,231.24 C249.4,231.24 252.026667,232.506667 253.76,235.04 C255.493333,237.573333 256.36,241.026667 256.36,245.4 C256.36,249.826667 255.493333,253.293333 253.76,255.8 C252.026667,258.306667 249.293333,259.56 245.56,259.56 Z M286.52,217.08 L286.52,208.28 L276.92,208.28 L276.92,217.08 L286.52,217.08 Z M286.52,267 L286.52,223.8 L276.92,223.8 L276.92,267 L286.52,267 Z M308.2,267 L308.2,244.76 C308.2,239.96 309.16,236.573333 311.08,234.6 C313,232.626667 315.4,231.64 318.28,231.64 C325.053333,231.64 328.44,236.493333 328.44,246.2 L328.44,246.2 L328.44,267 L338.2,267 L338.2,242.84 C338.2,238.146667 337.066667,233.6 334.8,229.2 C332.533333,224.8 327.986667,222.6 321.16,222.6 C315.08,222.6 310.386667,224.6 307.08,228.6 L307.08,228.6 L307.08,223.8 L298.44,223.8 L298.44,267 L308.2,267 Z M366.76,287.4 C371.826667,287.4 376.08,286.373333 379.52,284.32 C382.96,282.266667 385.16,279.213333 386.12,275.16 C386.493333,273.346667 386.68,271.32 386.68,269.08 L386.68,269.08 L386.68,223.8 L378.2,223.8 L378.2,226.84 C375.053333,224.013333 371.08,222.6 366.28,222.6 C362.28,222.6 358.76,223.586667 355.72,225.56 C352.68,227.533333 350.333333,230.24 348.68,233.68 C347.026667,237.12 346.2,241.026667 346.2,245.4 C346.2,249.72 347.013333,253.613333 348.64,257.08 C350.266667,260.546667 352.586667,263.266667 355.6,265.24 C358.613333,267.213333 362.066667,268.2 365.96,268.2 C370.333333,268.2 374.04,267.053333 377.08,264.76 L377.08,264.76 L377.08,268.92 C377.133333,271.906667 376.213333,274.2 374.32,275.8 C372.426667,277.4 369.933333,278.2 366.84,278.2 C365.026667,278.2 363.373333,277.813333 361.88,277.04 C360.386667,276.266667 359.266667,275.133333 358.52,273.64 L358.52,273.64 L349.56,278.04 C351.266667,280.973333 353.653333,283.266667 356.72,284.92 C359.786667,286.573333 363.133333,287.4 366.76,287.4 Z M367.4,259.56 C363.826667,259.56 361.106667,258.253333 359.24,255.64 C357.373333,253.026667 356.44,249.613333 356.44,245.4 C356.44,241.24 357.4,237.84 359.32,235.2 C361.24,232.56 364.04,231.24 367.72,231.24 C371.24,231.24 373.866667,232.506667 375.6,235.04 C377.333333,237.573333 378.2,241.026667 378.2,245.4 C378.2,249.826667 377.333333,253.293333 375.6,255.8 C373.866667,258.306667 371.133333,259.56 367.4,259.56 Z" id="Loading" fill="#D8D8D8" fill-rule="nonzero"></path>
        </g>
    </g>
</svg>